<svg xmlns="http://www.w3.org/2000/svg" id="Layer_1" data-name="Layer 1" viewBox="0 0 739.27 227.24"><defs><style>.cls-1{fill:#fff;}</style></defs><polygon class="cls-1" points="99.4 100.53 74.21 127.94 48.62 155.77 0 155.77 50.79 100.53 50.81 100.55 50.82 100.53 50.84 100.55 50.85 100.53 50.84 100.52 50.82 100.53 50.81 100.52 50.79 100.53 0 45.29 48.62 45.29 74.21 73.12 99.4 100.53"></polygon><circle class="cls-1" cx="74.54" cy="22.92" r="22.92"></circle><path class="cls-1" d="M559.33,528.07c-28.3,0-46.75,20.71-46.75,48.79s19.27,49,48,49c17.22,0,31.36-7.59,39.56-19.48l-12.9-9.22c-4.51,6.56-13.13,12.71-26.66,12.71-16.4,0-28.28-10.87-30.14-27.68h74.21v-5.33C604.62,548.78,586.79,528.07,559.33,528.07Zm-28.92,42c2.26-16.4,12.71-27.27,28.92-27.27,15.77,0,25.82,11.48,28.07,27.27Z" transform="translate(-230.36 -486.38)"></path><polygon class="cls-1" points="447.63 41.83 424.41 73.4 401.18 41.83 375.92 41.83 411.88 90.48 375.92 139.13 401.18 139.13 424.41 107.57 447.63 139.13 472.88 139.13 437.13 90.48 472.88 41.83 447.63 41.83"></polygon><path class="cls-1" d="M735.38,542.15V528.21H713.92v97.3h21.46V575.63c0-25.89,24.29-28.31,31.73-28.43l1.47,0V526.76l-1.52,0C754,527,742.67,532.52,735.38,542.15Z" transform="translate(-230.36 -486.38)"></path><path class="cls-1" d="M817.84,528.07c-28.29,0-46.74,20.71-46.74,48.79s19.28,49,48,49c17.21,0,31.37-7.59,39.56-19.48l-12.92-9.22c-4.51,6.56-13.12,12.71-26.64,12.71-16.41,0-28.3-10.87-30.13-27.68h74.2v-5.33C863.15,548.78,845.32,528.07,817.84,528.07ZM789,570.1c2.25-16.4,12.7-27.27,28.89-27.27,15.8,0,25.83,11.48,28.09,27.27Z" transform="translate(-230.36 -486.38)"></path><path class="cls-1" d="M951.18,529.71v14.76c-7-10-17.84-16.19-32.4-16.19-26.64,0-45.7,20.7-45.7,48.79,0,28.29,19.06,48.58,45.7,48.58,14.56,0,25.43-6.15,32.4-16v52.07h18.46v-132Zm-29.94,78.52c-18.23,0-30.13-13.12-30.13-31.16,0-18.25,11.9-31.37,30.13-31.37,18,0,29.94,13.12,29.94,31.37C951.18,595.11,939.28,608.23,921.24,608.23Z" transform="translate(-230.36 -486.38)"></path><polygon class="cls-1" points="246.8 93.03 187.81 2.88 163.36 2.88 163.36 139.13 189.12 139.13 189.12 48.98 248.1 139.13 272.55 139.13 272.55 2.88 246.8 2.88 246.8 93.03"></polygon><path class="cls-1" d="M404.75,703.89v9.47h-1.89V704l-7.63-11.82h2.21l6.34,9.86,6.36-9.86h2.22Z" transform="translate(-230.36 -486.38)"></path><path class="cls-1" d="M413.5,702.75c0-6.3,4.31-10.87,10.61-10.87s10.57,4.57,10.57,10.87-4.27,10.87-10.57,10.87S413.5,709.05,413.5,702.75Zm19.29,0c0-5.19-3.43-9-8.68-9s-8.72,3.78-8.72,9,3.5,9,8.72,9S432.79,707.94,432.79,702.75Z" transform="translate(-230.36 -486.38)"></path><path class="cls-1" d="M454.23,692.14V706c0,4.38-2.9,7.61-7.9,7.61s-7.89-3.23-7.89-7.61V692.14h1.89v13.74c0,3.66,2.32,5.88,6,5.88s6-2.22,6-5.88V692.14Z" transform="translate(-230.36 -486.38)"></path><path class="cls-1" d="M472.21,713.36l-6.1-8.62h-5.74v8.62h-1.89V692.14h9.69a6.32,6.32,0,0,1,.19,12.6l6.11,8.62Zm-11.84-10.48h7.57a4.46,4.46,0,0,0,0-8.91h-7.57Z" transform="translate(-230.36 -486.38)"></path><path class="cls-1" d="M506.52,698.44a6,6,0,0,1-5.94,6.3H493v8.62h-1.9V692.14h9.47A6,6,0,0,1,506.52,698.44Zm-1.86,0a4.33,4.33,0,0,0-4.31-4.47H493v8.91h7.34A4.31,4.31,0,0,0,504.66,698.44Z" transform="translate(-230.36 -486.38)"></path><path class="cls-1" d="M512,693.91v8h11v1.76H512v7.93h11.65v1.77H510.11V692.14h13.54v1.77Z" transform="translate(-230.36 -486.38)"></path><path class="cls-1" d="M526.75,702.75c0-6.3,4.31-10.87,10.61-10.87s10.57,4.57,10.57,10.87-4.27,10.87-10.57,10.87S526.75,709.05,526.75,702.75Zm19.29,0c0-5.19-3.43-9-8.68-9s-8.71,3.78-8.71,9,3.49,9,8.71,9S546,707.94,546,702.75Z" transform="translate(-230.36 -486.38)"></path><path class="cls-1" d="M567.09,698.44a6,6,0,0,1-5.94,6.3h-7.57v8.62h-1.89V692.14h9.46A6,6,0,0,1,567.09,698.44Zm-1.86,0a4.32,4.32,0,0,0-4.31-4.47h-7.34v8.91h7.34A4.31,4.31,0,0,0,565.23,698.44Z" transform="translate(-230.36 -486.38)"></path><path class="cls-1" d="M584.16,711.59v1.77H570.68V692.14h1.89v19.45Z" transform="translate(-230.36 -486.38)"></path><path class="cls-1" d="M589.64,693.91v8h11v1.76h-11v7.93h11.65v1.77H587.75V692.14h13.54v1.77Z" transform="translate(-230.36 -486.38)"></path><path class="cls-1" d="M633.83,698.44a6,6,0,0,1-5.94,6.3h-7.57v8.62h-1.89V692.14h9.46A6,6,0,0,1,633.83,698.44Zm-1.86,0a4.32,4.32,0,0,0-4.31-4.47h-7.34v8.91h7.34A4.31,4.31,0,0,0,632,698.44Z" transform="translate(-230.36 -486.38)"></path><path class="cls-1" d="M648.09,707.55H637.91l-2.38,5.81h-2l8.78-21.22h1.43l8.78,21.22h-2Zm-.71-1.76L643,695.08l-4.37,10.71Z" transform="translate(-230.36 -486.38)"></path><path class="cls-1" d="M669.18,713.36l-6.1-8.62h-5.75v8.62h-1.89V692.14h9.69a6.32,6.32,0,0,1,.2,12.6l6.1,8.62Zm-11.85-10.48h7.57a4.46,4.46,0,0,0,0-8.91h-7.57Z" transform="translate(-230.36 -486.38)"></path><path class="cls-1" d="M689.87,693.91h-7.08v19.45H680.9V693.91h-7.12v-1.77h16.09Z" transform="translate(-230.36 -486.38)"></path><path class="cls-1" d="M709.48,692.14v21.22h-1.86l-12.23-18v18h-1.9V692.14h1.83l12.27,18v-18Z" transform="translate(-230.36 -486.38)"></path><path class="cls-1" d="M715.62,693.91v8h11v1.76h-11v7.93h11.65v1.77H713.73V692.14h13.54v1.77Z" transform="translate(-230.36 -486.38)"></path><path class="cls-1" d="M745.09,713.36l-6.1-8.62h-5.74v8.62h-1.9V692.14H741a6.32,6.32,0,0,1,.2,12.6l6.1,8.62Zm-11.84-10.48h7.57a4.46,4.46,0,0,0,0-8.91h-7.57Z" transform="translate(-230.36 -486.38)"></path><path class="cls-1" d="M764,713.36V692.14h1.89v21.22Z" transform="translate(-230.36 -486.38)"></path><path class="cls-1" d="M786.15,692.14v21.22h-1.86l-12.24-18v18h-1.89V692.14H772l12.27,18v-18Z" transform="translate(-230.36 -486.38)"></path><path class="cls-1" d="M805.34,693.91v8h11v1.76h-11v7.93H817v1.77H803.45V692.14H817v1.77Z" transform="translate(-230.36 -486.38)"></path><path class="cls-1" d="M839,692.14l-8.68,21.22h-1.5l-8.68-21.22h2l7.41,18.25L837,692.14Z" transform="translate(-230.36 -486.38)"></path><path class="cls-1" d="M843.79,693.91v8h11v1.76h-11v7.93h11.65v1.77H841.89V692.14h13.55v1.77Z" transform="translate(-230.36 -486.38)"></path><path class="cls-1" d="M873.25,713.36l-6.1-8.62h-5.74v8.62h-1.89V692.14h9.69a6.32,6.32,0,0,1,.19,12.6l6.11,8.62Zm-11.84-10.48H869a4.46,4.46,0,0,0,0-8.91h-7.57Z" transform="translate(-230.36 -486.38)"></path><path class="cls-1" d="M886.44,703.89v9.47h-1.89V704l-7.64-11.82h2.22l6.33,9.86,6.37-9.86H894Z" transform="translate(-230.36 -486.38)"></path><path class="cls-1" d="M926.13,692.14v21.22h-1.9V703.7h-12.3v9.66H910V692.14h1.89v9.7h12.3v-9.7Z" transform="translate(-230.36 -486.38)"></path><path class="cls-1" d="M930.37,713.36V692.14h1.89v21.22Z" transform="translate(-230.36 -486.38)"></path><path class="cls-1" d="M950.25,713.36l-6.11-8.62H938.4v8.62h-1.89V692.14h9.69a6.32,6.32,0,0,1,.19,12.6l6.11,8.62ZM938.4,702.88H946a4.46,4.46,0,0,0,0-8.91H938.4Z" transform="translate(-230.36 -486.38)"></path><path class="cls-1" d="M958,693.91v8h11v1.76H958v7.93h11.65v1.77H956.09V692.14h13.54v1.77Z" transform="translate(-230.36 -486.38)"></path></svg>